<svg xmlns="http://www.w3.org/2000/svg" xmlns:xlink="http://www.w3.org/1999/xlink" width="183.379" height="32.204" viewBox="0 0 183.379 32.204">
  <defs>
    <clipPath id="clip-path">
      <rect id="Rectangle_2" data-name="Rectangle 2" width="183.379" height="32.204" fill="none"/>
    </clipPath>
  </defs>
  <g id="Group_2" data-name="Group 2" transform="translate(0 -123.398)">
    <g id="Group_1" data-name="Group 1" transform="translate(0 123.398)" clip-path="url(#clip-path)">
      <path id="Path_1" data-name="Path 1" d="M82.116,177.8a.584.584,0,0,1-.313-.12,4.135,4.135,0,0,1-1.33-1.653,1.725,1.725,0,0,0-1.839-1.244l-.584-.005,0,2.585v.01a.378.378,0,1,1-.756,0l-.015-6.3a.379.379,0,0,1,.373-.378l1.34-.005h.116c1.7,0,2.887.65,2.887,2.085a2.007,2.007,0,0,1-1.506,1.9,2.673,2.673,0,0,1,.448.654,4.593,4.593,0,0,0,1.34,1.8.4.4,0,0,1,.161.313.37.37,0,0,1-.327.358M78.04,171.44l.011,2.656a.288.288,0,0,1,.065-.005l1.032-.01c1.234-.01,2.106-.383,2.106-1.335,0-.983-.957-1.3-2.116-1.3Z" transform="translate(-36.327 -145.625)" fill="#1a1818"/>
      <path id="Path_2" data-name="Path 2" d="M89.3,170.742l4.72.005h.005a.378.378,0,1,1,0,.756h-.005l-4.342-.005,0,2.368c.021,0,.036-.005.05-.005l3.874.025a.372.372,0,0,1,.378.4.384.384,0,0,1-.378.353h0l-3.873-.025h-.041l.005,2.341,4.327,0h.005a.378.378,0,1,1,0,.756h-.005l-4.7.005a.381.381,0,0,1-.378-.378l-.014-6.216a.38.38,0,0,1,.377-.378" transform="translate(-41.799 -145.652)" fill="#1a1818"/>
      <path id="Path_3" data-name="Path 3" d="M100.7,177.473a.428.428,0,0,1,.035-.192l2.766-6.321a.425.425,0,0,1,.328-.227.366.366,0,0,1,.368.227l2.771,6.311a.363.363,0,0,1,.03.146.374.374,0,0,1-.332.388.381.381,0,0,1-.393-.232l-1.013-2.312h-2.8l-1.032,2.322a.369.369,0,0,1-.374.232.392.392,0,0,1-.352-.343m2.085-2.967h2.141l-1.078-2.448Z" transform="translate(-47.334 -145.648)" fill="#1a1818"/>
      <path id="Path_4" data-name="Path 4" d="M114.219,177.326l-.015-6.191v0a.378.378,0,1,1,.755,0v0l.015,5.813h3.945a.378.378,0,0,1,0,.756H114.6a.381.381,0,0,1-.378-.378" transform="translate(-53.681 -145.656)" fill="#1a1818"/>
      <path id="Path_5" data-name="Path 5" d="M125.44,177.41V177.4l0-6.326v-.005a.387.387,0,0,1,.352-.378.372.372,0,0,1,.4.378v.005l0,6.326v.005a.378.378,0,1,1-.756,0" transform="translate(-58.961 -145.63)" fill="#1a1818"/>
      <path id="Path_6" data-name="Path 6" d="M128.872,170.714h5.043a.368.368,0,0,1,.378.363.392.392,0,0,1-.383.393h-2.146v5.93a.389.389,0,0,1-.387.377.372.372,0,0,1-.368-.377v-5.93h-2.142a.368.368,0,0,1-.377-.362.392.392,0,0,1,.383-.393" transform="translate(-60.396 -145.639)" fill="#1a1818"/>
      <path id="Path_7" data-name="Path 7" d="M140.794,170.79a.322.322,0,0,1,.292.182l1.91,3.053,1.869-3.013a.446.446,0,0,1,.287-.181.321.321,0,0,1,.312.116.35.35,0,0,1,.106.241.42.42,0,0,1-.061.227l-2.156,3.465-.035,2.564a.378.378,0,1,1-.756,0v-.01l.035-2.62-2.151-3.441a.417.417,0,0,1-.06-.226.389.389,0,0,1,.408-.358" transform="translate(-65.988 -145.674)" fill="#1a1818"/>
      <path id="Path_8" data-name="Path 8" d="M156.23,170.794a.366.366,0,0,1,.373.226l2.559,5.476,2.3-5.532a.371.371,0,0,1,.378-.241.382.382,0,0,1,.352.343.532.532,0,0,1-.025.181l-2.629,6.357a.416.416,0,0,1-.353.242.354.354,0,0,1-.343-.227l-2.927-6.292a.42.42,0,0,1-.035-.191.391.391,0,0,1,.352-.342" transform="translate(-73.27 -145.643)" fill="#1a1818"/>
      <path id="Path_9" data-name="Path 9" d="M169.789,170.742l4.72.005h0a.378.378,0,1,1,0,.756h0l-4.342-.005,0,2.368c.02,0,.035-.005.05-.005l3.874.025a.372.372,0,0,1,.378.4.383.383,0,0,1-.378.353h-.005l-3.874-.025h-.04l0,2.341,4.328,0h0a.378.378,0,1,1,0,.756h0l-4.7.005a.381.381,0,0,1-.378-.378l-.015-6.216a.381.381,0,0,1,.378-.378" transform="translate(-79.631 -145.652)" fill="#1a1818"/>
      <path id="Path_10" data-name="Path 10" d="M182.245,170.7a.348.348,0,0,1,.287.151l4.03,5.42V171.1a.378.378,0,0,1,.756,0v.005l0,6.306a.378.378,0,0,1-.393.378.346.346,0,0,1-.287-.151l-4.025-5.415V177.4a.378.378,0,0,1-.755,0v-6.322a.378.378,0,0,1,.393-.378" transform="translate(-85.479 -145.634)" fill="#1a1818"/>
      <path id="Path_11" data-name="Path 11" d="M194.17,170.714h5.043a.368.368,0,0,1,.378.363.392.392,0,0,1-.383.393h-2.146v5.93a.389.389,0,0,1-.387.377.372.372,0,0,1-.368-.377v-5.93h-2.142a.368.368,0,0,1-.377-.362.392.392,0,0,1,.383-.393" transform="translate(-91.089 -145.639)" fill="#1a1818"/>
      <path id="Path_12" data-name="Path 12" d="M206.7,170.781c.267,0,.4.126.4.377l.036,3.421c.01,1.507.569,2.525,1.985,2.525,1.556,0,2.141-1.038,2.141-2.448l-.01-3.5v0a.377.377,0,0,1,.373-.377.385.385,0,0,1,.383.377v0l.011,3.5c0,2-.942,3.2-2.877,3.2-1.854,0-2.741-1.341-2.761-3.27l-.036-3.421v-.005a.388.388,0,0,1,.353-.377" transform="translate(-96.993 -145.665)" fill="#1a1818"/>
      <path id="Path_13" data-name="Path 13" d="M224.173,177.8a.582.582,0,0,1-.312-.12,4.141,4.141,0,0,1-1.33-1.653,1.724,1.724,0,0,0-1.838-1.244l-.585-.005,0,2.585v.01a.378.378,0,1,1-.756,0l-.014-6.3a.379.379,0,0,1,.372-.378l1.34-.005h.116c1.7,0,2.887.65,2.887,2.085a2.007,2.007,0,0,1-1.507,1.9,2.644,2.644,0,0,1,.448.654,4.594,4.594,0,0,0,1.34,1.8.4.4,0,0,1,.162.313.37.37,0,0,1-.328.358M220.1,171.44l.01,2.656a.293.293,0,0,1,.065-.005l1.033-.01c1.234-.01,2.105-.383,2.105-1.335,0-.983-.957-1.3-2.116-1.3Z" transform="translate(-103.101 -145.625)" fill="#1a1818"/>
      <path id="Path_14" data-name="Path 14" d="M231.358,170.742l4.72.005h.005a.378.378,0,0,1,0,.756h-.005l-4.342-.005.005,2.368c.02,0,.035-.005.05-.005l3.874.025a.372.372,0,0,1,.378.4.383.383,0,0,1-.378.353h-.005l-3.874-.025h-.04l.005,2.341,4.327,0h.005a.378.378,0,0,1,0,.756h-.005l-4.7.005a.381.381,0,0,1-.378-.378l-.015-6.216a.381.381,0,0,1,.378-.378" transform="translate(-108.571 -145.652)" fill="#1a1818"/>
      <path id="Path_15" data-name="Path 15" d="M248.6,172.182a.392.392,0,0,1,.036.151.359.359,0,0,1-.358.358.391.391,0,0,1-.333-.217,1.852,1.852,0,0,0-1.753-1c-.862,0-1.965.413-1.965,1.266,0,.986,1.5,1.138,2.393,1.264,1.073.146,2.257.549,2.257,1.8,0,1.37-1.491,2.02-2.685,2.02a2.89,2.89,0,0,1-2.741-1.577.5.5,0,0,1-.03-.146.358.358,0,0,1,.357-.357.393.393,0,0,1,.333.222,2.155,2.155,0,0,0,2.081,1.152c.856,0,1.975-.4,1.975-1.314,0-.806-.912-1-1.642-1.094-1.315-.186-3.018-.443-3.018-1.979,0-1.289,1.451-1.98,2.685-1.98a2.58,2.58,0,0,1,2.408,1.43" transform="translate(-114.419 -145.656)" fill="#1a1818"/>
      <path id="Path_16" data-name="Path 16" d="M260.769,177.388v0l-.01-6.282a.414.414,0,0,1,.373-.378l1.587-.011c1.436,0,2.524.691,2.524,2.126,0,1.667-1.119,2.293-2.741,2.337l-.982.02,0,2.187v0a.378.378,0,0,1-.756,0m1.915-5.915h-1.169l.005,2.968.967-.02c1.2-.025,2-.374,2-1.577,0-.987-.73-1.371-1.8-1.371" transform="translate(-122.568 -145.638)" fill="#1a1818"/>
      <path id="Path_17" data-name="Path 17" d="M271,170.794a.366.366,0,0,1,.373.226l2.559,5.476,2.3-5.532a.371.371,0,0,1,.378-.241.383.383,0,0,1,.353.343.546.546,0,0,1-.025.181l-2.63,6.357a.413.413,0,0,1-.352.242.354.354,0,0,1-.343-.227l-2.927-6.292a.427.427,0,0,1-.035-.191.391.391,0,0,1,.353-.342" transform="translate(-127.217 -145.643)" fill="#1a1818"/>
      <path id="Path_18" data-name="Path 18" d="M283.9,170.714h5.043a.368.368,0,0,1,.378.363.392.392,0,0,1-.383.393h-2.146v5.93a.389.389,0,0,1-.388.377.372.372,0,0,1-.367-.377v-5.93h-2.142a.368.368,0,0,1-.377-.362.392.392,0,0,1,.383-.393" transform="translate(-133.266 -145.639)" fill="#1a1818"/>
      <path id="Path_19" data-name="Path 19" d="M295.89,181.966a.728.728,0,0,1,1.456,0,.728.728,0,0,1-1.456,0" transform="translate(-139.082 -150.598)" fill="#1a1818"/>
      <path id="Path_20" data-name="Path 20" d="M305.5,177.326l-.015-6.191v0a.378.378,0,1,1,.756,0v0l.015,5.813H310.2a.378.378,0,0,1,0,.756h-4.322a.38.38,0,0,1-.378-.378" transform="translate(-143.592 -145.656)" fill="#1a1818"/>
      <path id="Path_21" data-name="Path 21" d="M316.434,170.714h5.043a.368.368,0,0,1,.378.363.392.392,0,0,1-.383.393h-2.146v5.93a.389.389,0,0,1-.388.377.372.372,0,0,1-.367-.377v-5.93h-2.142a.368.368,0,0,1-.378-.362.392.392,0,0,1,.383-.393" transform="translate(-148.558 -145.639)" fill="#1a1818"/>
      <path id="Path_22" data-name="Path 22" d="M334.378,174.3a3.143,3.143,0,0,1-2.982,3.416l-2.408-.01a.37.37,0,0,1-.373-.363l.035-6.212a.4.4,0,0,1,.367-.4l1.774-.01a3.4,3.4,0,0,1,3.587,3.577m-4.025-2.816-.952.02-.031,5.466,1.37.01c1.934.025,2.942-.906,2.942-2.791,0-1.953-1.336-2.749-3.33-2.7" transform="translate(-154.464 -145.643)" fill="#1a1818"/>
      <path id="Path_23" data-name="Path 23" d="M341.4,181.966a.729.729,0,0,1,1.456,0,.729.729,0,0,1-1.456,0" transform="translate(-160.472 -150.598)" fill="#1a1818"/>
      <path id="Path_24" data-name="Path 24" d="M75.515,139.714V124.988a.93.93,0,0,1,1.032-1.006h9.594a.911.911,0,0,1,1.031.98v.9a.93.93,0,0,1-1.031,1.006H79v4.256h5.184a.93.93,0,0,1,1.031,1.005v.774a.911.911,0,0,1-1.031.98H79v5.828a.911.911,0,0,1-.98,1.032h-1.5a.93.93,0,0,1-1.006-1.032" transform="translate(-35.495 -123.672)" fill="#101a42"/>
      <path id="Path_25" data-name="Path 25" d="M99.4,132.091c0-4.978,3.946-8.692,9.1-8.692,5.184,0,9.1,3.713,9.1,8.692,0,4.952-3.92,8.691-9.1,8.691-5.158,0-9.1-3.713-9.1-8.691m14.675,0a5.558,5.558,0,1,0-5.571,5.545,5.416,5.416,0,0,0,5.571-5.545" transform="translate(-46.724 -123.398)" fill="#101a42"/>
      <path id="Path_26" data-name="Path 26" d="M149.4,140.746h-2.3c-.645,0-.9-.335-1.341-1.005l-3.378-5-3.507,5c-.439.644-.7,1.005-1.341,1.005h-2.115c-.645,0-.98-.387-.568-.928l5.519-7.5-5.209-7.4c-.361-.568-.052-.928.567-.928h2.3c.644,0,.9.335,1.341.98l3.121,4.616,3.2-4.616c.439-.67.7-.98,1.341-.98h2.115c.645,0,.98.387.567.928l-5.235,7.17,5.493,7.737c.387.542.052.928-.567.928" transform="translate(-63.303 -123.672)" fill="#101a42"/>
      <path id="Path_27" data-name="Path 27" d="M164.841,132.091a8.61,8.61,0,0,1,8.872-8.692,8.834,8.834,0,0,1,5.545,1.882.88.88,0,0,1,.025,1.445l-.8.747a1.113,1.113,0,0,1-1.522.027,5.711,5.711,0,0,0-3.172-1.006,5.638,5.638,0,0,0,.078,11.271,6.572,6.572,0,0,0,3.482-1.006v-3.1h-3.121a.891.891,0,0,1-1.006-.979v-.671a.9.9,0,0,1,1.006-.979h5.261a.922.922,0,0,1,1.006,1.005v5.622a1.637,1.637,0,0,1-.98,1.445,10.693,10.693,0,0,1-5.854,1.676,8.612,8.612,0,0,1-8.821-8.691" transform="translate(-77.483 -123.398)" fill="#101a42"/>
      <path id="Path_28" data-name="Path 28" d="M200.551,139.74V124.988a.911.911,0,0,1,1.006-1.006h1.5a.892.892,0,0,1,.98,1.006v12.87h6.345a.911.911,0,0,1,1.032.979v.9a.93.93,0,0,1-1.032,1.006h-8.821a.911.911,0,0,1-1.006-1.006" transform="translate(-94.268 -123.672)" fill="#101a42"/>
      <path id="Path_29" data-name="Path 29" d="M221.861,132.091c0-4.978,3.946-8.692,9.1-8.692,5.184,0,9.1,3.713,9.1,8.692,0,4.952-3.92,8.691-9.1,8.691-5.158,0-9.1-3.713-9.1-8.691m14.674,0a5.558,5.558,0,1,0-5.571,5.545,5.416,5.416,0,0,0,5.571-5.545" transform="translate(-104.285 -123.398)" fill="#101a42"/>
      <path id="Path_30" data-name="Path 30" d="M275.135,136.052c0,2.863-2.45,4.694-6.138,4.694h-6.112a.949.949,0,0,1-1.032-1.032V124.988a.93.93,0,0,1,1.032-1.006h5.622c3.533,0,5.622,1.65,5.622,4.41a3.817,3.817,0,0,1-2.14,3.457,4.414,4.414,0,0,1,3.146,4.2m-3.456-.335c0-1.444-1.135-2.4-2.888-2.4h-3.456v4.772h3.224c1.986,0,3.12-.852,3.12-2.373m-6.319-9.1V131h2.811c1.625,0,2.6-.8,2.6-2.191s-.954-2.192-2.6-2.192Z" transform="translate(-123.083 -123.672)" fill="#101a42"/>
      <path id="Path_31" data-name="Path 31" d="M305.091,140.609h-2.012c-.644,0-.774-.361-1.057-1.005l-.9-2.166h-7.634l-.928,2.166c-.258.644-.387,1.005-1.058,1.005h-1.882c-.645,0-.98-.361-.671-1.005l7.093-15.036a1.292,1.292,0,0,1,1.212-.877h.232a1.325,1.325,0,0,1,1.238.877l7.066,15.036c.284.644-.026,1.005-.7,1.005m-5.029-5.674-2.708-6.5-2.786,6.5Z" transform="translate(-135.763 -123.536)" fill="#101a42"/>
      <path id="Path_32" data-name="Path 32" d="M325.539,139.74V124.988a.91.91,0,0,1,1.006-1.006h1.5a.892.892,0,0,1,.98,1.006v12.87h6.345a.911.911,0,0,1,1.032.979v.9a.93.93,0,0,1-1.032,1.006h-8.821a.91.91,0,0,1-1.006-1.006" transform="translate(-153.018 -123.672)" fill="#101a42"/>
      <rect id="Rectangle_1" data-name="Rectangle 1" width="31.97" height="31.969" transform="translate(0 0.107)" fill="#101a42"/>
      <path id="Path_33" data-name="Path 33" d="M23.25,137.69l-1.3-1.3-7.829,7.829-1.264,1.264-.031.031,9.283,9.283,1.3-1.295-7.987-7.988Z" transform="translate(-6.031 -129.507)" fill="#fff"/>
      <path id="Path_34" data-name="Path 34" d="M35.911,148.14l-1.3-1.295-.006.005-1.3-1.305,0,0-1.3-1.3,0,0-1.3,1.3-1.9,1.9,1.3,1.3,1.9-1.9,1.305,1.305L29.356,152.1,25.4,148.15l5.259-5.259-1.295-1.3-6.515,6.514.04.04-.04.04,6.515,6.514,1.295-1.3-.009-.009Z" transform="translate(-10.741 -131.951)" fill="#fff"/>
    </g>
  </g>
</svg>
