<svg xmlns="http://www.w3.org/2000/svg" xmlns:xlink="http://www.w3.org/1999/xlink" width="48" height="48" viewBox="0 0 48 48">
  <defs>
    <clipPath id="clip-Mission">
      <rect width="48" height="48"/>
    </clipPath>
  </defs>
  <g id="Mission" clip-path="url(#clip-Mission)">
    <g id="Group_343" data-name="Group 343" transform="translate(-548.103 -986.176)">
      <path id="Path_57" data-name="Path 57" d="M-2800.925-1030.051a16.815,16.815,0,0,0,16.538-20.262c-.014-.062-.053-.13-.04-.186.09-.38.19-.757.287-1.136.226.291.579.551.661.878a17.729,17.729,0,0,1-13.486,21.277,17.7,17.7,0,0,1-21.34-14.966c-1.5-9.912,6.359-19.559,16.374-20a33.955,33.955,0,0,1,5.038.375c.291.031.547.4.82.605-.339.109-.708.367-1.014.307a16.752,16.752,0,0,0-18.61,8.891c-5.351,10.3,1.9,23.269,13.482,24.125C-2801.705-1030.1-2801.2-1030.07-2800.925-1030.051Z" transform="translate(3372.592 2056.953)" fill="#009bdf"/>
      <path id="Path_58" data-name="Path 58" d="M-2607-843.851a12.094,12.094,0,0,1,14.476-11.8c.357.067.961.474.934.64-.105.66-.65.377-1.072.3a11.242,11.242,0,0,0-13.145,8.758,11.226,11.226,0,0,0,8.787,13.2,11.244,11.244,0,0,0,13.228-12.842,2.836,2.836,0,0,1,.191-1.374c.862-.013.665.764.753,1.261a12.166,12.166,0,0,1-10.1,14.016A12.177,12.177,0,0,1-2607-843.851Z" transform="translate(3166.697 1853.883)" fill="#009bdf"/>
      <path id="Path_59" data-name="Path 59" d="M-2158.8-1006.737a12.261,12.261,0,0,1-1.877-.257,2.543,2.543,0,0,0-2.913.961c-1.322,1.468-2.776,2.817-4.178,4.212-.316.314-.7.748-1.087.228-.132-.176.06-.777.284-1.01,1.57-1.633,3.176-3.23,4.795-4.814a1.238,1.238,0,0,0,.478-1.419c-.063-.174,0-.393-.064-.567-.667-1.861.074-3.152,1.495-4.368,1.546-1.323,2.9-2.868,4.365-4.292.226-.22.641-.484.86-.409a1.051,1.051,0,0,1,.482.829c.022,2.24,1.034,3.428,3.355,3.4.293,0,.811.257.833.443a1.367,1.367,0,0,1-.41.957q-2.742,2.806-5.545,5.551A4.058,4.058,0,0,1-2158.8-1006.737Zm1.615-10.134-4.623,4.712c-.134.137-.28.263-.4.412a6,6,0,0,0,.295,3.375.368.368,0,0,0,.17.081,12.061,12.061,0,0,0,2.647.28c.464-.045.895-.643,1.3-1.034,1.369-1.321,2.72-2.662,4.252-4.165-.886-.185-1.493-.358-2.112-.429a1.11,1.11,0,0,1-1.1-1.085C-2156.84-1015.342-2156.995-1015.949-2157.184-1016.871Z" transform="translate(2740.175 2012.195)" fill="#009bdf"/>
      <path id="Path_60" data-name="Path 60" d="M-2403.47-647.1a6.764,6.764,0,0,1,7.811-6.676.978.978,0,0,1,.458.112,4.17,4.17,0,0,1,.493.581c-.225.121-.446.334-.675.345a18.876,18.876,0,0,0-2.366.011,5.784,5.784,0,0,0-4.726,6.331,5.875,5.875,0,0,0,6.12,5.151,5.761,5.761,0,0,0,5.451-5.907c-.007-.413-.121-.827-.1-1.236a2.218,2.218,0,0,1,.3-.7c.216.176.571.316.625.533a6.417,6.417,0,0,1-.758,4.97,6.82,6.82,0,0,1-7.767,3.077A6.778,6.778,0,0,1-2403.47-647.1Z" transform="translate(2968.545 1657.203)" fill="#009bdf"/>
    </g>
  </g>
</svg>
